<svg width="378.6" height="72.001" viewBox="0 0 378.6 72.001" xmlns="http://www.w3.org/2000/svg"><g id="svgGroup" stroke-linecap="round" fill-rule="evenodd" font-size="9pt" stroke="#ffffff" stroke-width="0.25mm" fill="#ffffff" style="stroke:#ffffff;stroke-width:0.25mm;fill:#ffffff"><path d="M 40.6 71.001 L 40.6 1.001 L 54.4 1.001 L 65.1 42.901 L 65.3 42.901 L 65.3 1.001 L 75.1 1.001 L 75.1 71.001 L 63.8 71.001 L 50.6 19.901 L 50.4 19.901 L 50.4 71.001 L 40.6 71.001 Z M 344.1 71.001 L 344.1 1.001 L 357.9 1.001 L 368.6 42.901 L 368.8 42.901 L 368.8 1.001 L 378.6 1.001 L 378.6 71.001 L 367.3 71.001 L 354.1 19.901 L 353.9 19.901 L 353.9 71.001 L 344.1 71.001 Z M 0 54.401 L 0 1.001 L 11 1.001 L 11 55.201 Q 11 58.801 12.45 60.401 A 4.697 4.697 0 0 0 14.891 61.812 Q 15.66 61.998 16.571 62.001 A 9.11 9.11 0 0 0 16.6 62.001 Q 19.044 62.001 20.464 60.689 A 4.571 4.571 0 0 0 20.75 60.401 A 4.717 4.717 0 0 0 21.648 58.883 Q 22.165 57.515 22.198 55.48 A 17.299 17.299 0 0 0 22.2 55.201 L 22.2 1.001 L 32.8 1.001 L 32.8 54.401 A 27.602 27.602 0 0 1 32.369 59.441 Q 31.84 62.284 30.663 64.517 A 13.766 13.766 0 0 1 28.6 67.451 A 13.5 13.5 0 0 1 22.07 71.306 Q 19.883 71.903 17.267 71.987 A 27.056 27.056 0 0 1 16.4 72.001 A 22.43 22.43 0 0 1 11.559 71.511 Q 8.444 70.822 6.138 69.165 A 12.768 12.768 0 0 1 4.2 67.451 Q 0.636 63.589 0.096 56.883 A 30.974 30.974 0 0 1 0 54.401 Z M 208.6 54.401 L 208.6 50.401 L 219 50.401 L 219 55.201 Q 219 61.207 223.447 61.908 A 8.05 8.05 0 0 0 224.7 62.001 Q 227.5 62.001 228.95 60.351 Q 230.338 58.771 230.397 55.314 A 18.22 18.22 0 0 0 230.4 55.001 A 16.438 16.438 0 0 0 229.868 50.742 A 13.651 13.651 0 0 0 228.4 47.251 A 19.081 19.081 0 0 0 226.842 45.055 Q 224.734 42.45 221 39.201 A 72.472 72.472 0 0 1 217.15 35.563 Q 213.482 31.814 211.625 28.573 A 20.769 20.769 0 0 1 211.5 28.351 A 21.525 21.525 0 0 1 208.88 19.461 A 26.199 26.199 0 0 1 208.8 17.401 A 26.379 26.379 0 0 1 209.252 12.358 Q 209.827 9.407 211.134 7.11 A 13.862 13.862 0 0 1 213 4.551 A 13.5 13.5 0 0 1 219.53 0.695 Q 221.717 0.098 224.333 0.014 A 27.056 27.056 0 0 1 225.2 0.001 Q 233.1 0.001 237.15 4.551 Q 241.2 9.101 241.2 17.601 L 241.2 20.501 L 230.8 20.501 L 230.8 16.901 Q 230.8 13.488 229.542 11.827 A 4.111 4.111 0 0 0 229.4 11.651 A 4.506 4.506 0 0 0 226.936 10.179 A 7.037 7.037 0 0 0 225.3 10.001 Q 219.8 10.001 219.8 16.701 Q 219.8 20.501 221.85 23.801 Q 223.668 26.728 228.122 30.756 A 82.526 82.526 0 0 0 229.3 31.801 Q 236.2 37.801 238.8 42.701 Q 241.4 47.601 241.4 54.201 Q 241.4 60.335 239.238 64.434 A 13.911 13.911 0 0 1 237.15 67.401 A 13.66 13.66 0 0 1 230.554 71.295 Q 228.335 71.901 225.68 71.987 A 27.431 27.431 0 0 1 224.8 72.001 A 22.4 22.4 0 0 1 220.075 71.534 Q 215.487 70.543 212.7 67.451 Q 209.241 63.612 208.7 56.96 A 31.618 31.618 0 0 1 208.6 54.401 Z M 245.8 54.401 L 245.8 50.401 L 256.2 50.401 L 256.2 55.201 Q 256.2 61.207 260.647 61.908 A 8.05 8.05 0 0 0 261.9 62.001 Q 264.7 62.001 266.15 60.351 Q 267.538 58.771 267.597 55.314 A 18.22 18.22 0 0 0 267.6 55.001 A 16.438 16.438 0 0 0 267.068 50.742 A 13.651 13.651 0 0 0 265.6 47.251 A 19.081 19.081 0 0 0 264.042 45.055 Q 261.934 42.45 258.2 39.201 A 72.472 72.472 0 0 1 254.35 35.563 Q 250.682 31.814 248.825 28.573 A 20.769 20.769 0 0 1 248.7 28.351 A 21.525 21.525 0 0 1 246.08 19.461 A 26.199 26.199 0 0 1 246 17.401 A 26.379 26.379 0 0 1 246.452 12.358 Q 247.027 9.407 248.334 7.11 A 13.862 13.862 0 0 1 250.2 4.551 A 13.5 13.5 0 0 1 256.73 0.695 Q 258.917 0.098 261.533 0.014 A 27.056 27.056 0 0 1 262.4 0.001 Q 270.3 0.001 274.35 4.551 Q 278.4 9.101 278.4 17.601 L 278.4 20.501 L 268 20.501 L 268 16.901 Q 268 13.488 266.742 11.827 A 4.111 4.111 0 0 0 266.6 11.651 A 4.506 4.506 0 0 0 264.136 10.179 A 7.037 7.037 0 0 0 262.5 10.001 Q 257 10.001 257 16.701 Q 257 20.501 259.05 23.801 Q 260.868 26.728 265.322 30.756 A 82.526 82.526 0 0 0 266.5 31.801 Q 273.4 37.801 276 42.701 Q 278.6 47.601 278.6 54.201 Q 278.6 60.335 276.438 64.434 A 13.911 13.911 0 0 1 274.35 67.401 A 13.66 13.66 0 0 1 267.754 71.295 Q 265.535 71.901 262.88 71.987 A 27.431 27.431 0 0 1 262 72.001 A 22.4 22.4 0 0 1 257.275 71.534 Q 252.687 70.543 249.9 67.451 Q 246.441 63.612 245.9 56.96 A 31.618 31.618 0 0 1 245.8 54.401 Z M 83.3 71.001 L 83.3 1.001 L 113.3 1.001 L 113.3 11.001 L 94.3 11.001 L 94.3 29.501 L 109.4 29.501 L 109.4 39.501 L 94.3 39.501 L 94.3 61.001 L 113.3 61.001 L 113.3 71.001 L 83.3 71.001 Z M 167.8 71.001 L 179.2 1.001 L 194.1 1.001 L 205.5 71.001 L 194.5 71.001 L 192.5 57.101 L 192.5 57.301 L 180 57.301 L 178 71.001 L 167.8 71.001 Z M 135.6 71.001 L 135.6 1.001 L 151.8 1.001 Q 157.53 1.001 161.258 3.149 A 12.152 12.152 0 0 1 164.1 5.401 A 14.033 14.033 0 0 1 167.143 10.725 Q 167.837 12.864 168.075 15.458 A 31.07 31.07 0 0 1 168.2 18.301 L 168.2 25.201 A 28.154 28.154 0 0 1 167.8 30.113 Q 167.325 32.788 166.287 34.9 A 13.197 13.197 0 0 1 164.1 38.101 A 12.931 12.931 0 0 1 158.389 41.597 Q 156.324 42.247 153.823 42.429 A 27.789 27.789 0 0 1 151.8 42.501 L 146.6 42.501 L 146.6 71.001 L 135.6 71.001 Z M 303.3 54.401 L 303.3 17.601 A 26.391 26.391 0 0 1 303.763 12.497 Q 304.355 9.494 305.706 7.16 A 14.01 14.01 0 0 1 307.6 4.601 Q 311.684 0.232 319.194 0.012 A 27.536 27.536 0 0 1 320 0.001 A 22.814 22.814 0 0 1 324.907 0.496 Q 328.108 1.201 330.48 2.91 A 13.123 13.123 0 0 1 332.4 4.601 Q 336.213 8.68 336.645 15.746 A 30.402 30.402 0 0 1 336.7 17.601 L 336.7 54.401 A 26.391 26.391 0 0 1 336.237 59.504 Q 335.645 62.508 334.294 64.841 A 14.01 14.01 0 0 1 332.4 67.401 Q 328.317 71.769 320.806 71.989 A 27.536 27.536 0 0 1 320 72.001 A 22.814 22.814 0 0 1 315.094 71.505 Q 311.892 70.8 309.52 69.091 A 13.123 13.123 0 0 1 307.6 67.401 Q 303.787 63.322 303.355 56.255 A 30.402 30.402 0 0 1 303.3 54.401 Z M 284.9 71.001 L 284.9 1.001 L 295.9 1.001 L 295.9 71.001 L 284.9 71.001 Z M 325.7 55.101 L 325.7 16.901 A 12.201 12.201 0 0 0 325.456 14.339 Q 324.52 10.001 320 10.001 A 6.668 6.668 0 0 0 317.54 10.419 Q 314.636 11.566 314.335 15.863 A 14.845 14.845 0 0 0 314.3 16.901 L 314.3 55.101 A 12.201 12.201 0 0 0 314.544 57.662 Q 315.48 62.001 320 62.001 A 6.668 6.668 0 0 0 322.46 61.583 Q 325.364 60.435 325.665 56.138 A 14.845 14.845 0 0 0 325.7 55.101 Z M 181.3 47.801 L 191.2 47.801 L 186.3 13.201 L 186.1 13.201 L 181.3 47.801 Z M 146.6 32.501 L 151.8 32.501 A 7.726 7.726 0 0 0 153.356 32.354 Q 154.922 32.032 155.85 31.001 Q 157.2 29.501 157.2 25.901 L 157.2 17.601 A 15.128 15.128 0 0 0 157.105 15.836 Q 156.841 13.602 155.85 12.501 A 4.268 4.268 0 0 0 153.871 11.278 Q 153.188 11.07 152.365 11.018 A 8.971 8.971 0 0 0 151.8 11.001 L 146.6 11.001 L 146.6 32.501 Z" vector-effect="non-scaling-stroke"/></g></svg>