<svg width="187.74" height="43.201" viewBox="0 0 187.74 43.201" xmlns="http://www.w3.org/2000/svg"><g id="svgGroup" stroke-linecap="round" fill-rule="evenodd" font-size="9pt" stroke="#ffffff" stroke-width="0.25mm" fill="none" style="stroke:#ffffff;stroke-width:0.25mm;fill:none"><path d="M 45.9 32.64 L 45.9 0.6 L 52.5 0.6 L 52.5 33.12 Q 52.5 35.159 53.275 36.129 A 2.365 2.365 0 0 0 53.37 36.24 Q 54.235 37.195 55.843 37.2 A 5.466 5.466 0 0 0 55.86 37.2 Q 57.327 37.2 58.179 36.414 A 2.743 2.743 0 0 0 58.35 36.24 Q 59.186 35.318 59.219 33.288 A 10.381 10.381 0 0 0 59.22 33.12 L 59.22 0.6 L 65.58 0.6 L 65.58 32.64 Q 65.58 37.74 63.06 40.47 Q 60.678 43.05 56.26 43.192 A 16.233 16.233 0 0 1 55.74 43.2 Q 51.951 43.2 49.583 41.499 A 7.661 7.661 0 0 1 48.42 40.47 Q 46.281 38.154 45.958 34.13 A 18.584 18.584 0 0 1 45.9 32.64 Z M 68.4 42.6 L 76.02 21.12 L 68.76 0.6 L 75.72 0.6 L 80.16 14.16 L 80.28 14.16 L 84.84 0.6 L 91.08 0.6 L 83.82 21.12 L 91.44 42.6 L 84.48 42.6 L 79.68 27.96 L 79.56 27.96 L 74.64 42.6 L 68.4 42.6 Z M 168.06 32.64 L 168.06 30.24 L 174.3 30.24 L 174.3 33.12 A 7.113 7.113 0 0 0 174.447 34.635 Q 174.925 36.823 176.968 37.145 A 4.83 4.83 0 0 0 177.72 37.2 Q 179.082 37.2 179.912 36.55 A 2.67 2.67 0 0 0 180.27 36.21 A 2.925 2.925 0 0 0 180.8 35.295 Q 181.14 34.388 181.14 33 Q 181.14 30.36 179.94 28.35 A 11.449 11.449 0 0 0 179.005 27.033 Q 177.926 25.7 176.138 24.085 A 47.029 47.029 0 0 0 175.5 23.52 A 43.483 43.483 0 0 1 173.19 21.338 Q 170.914 19.011 169.8 17.01 A 12.915 12.915 0 0 1 168.228 11.676 A 15.72 15.72 0 0 1 168.18 10.44 Q 168.18 5.46 170.7 2.73 Q 173.082 0.15 177.5 0.009 A 16.233 16.233 0 0 1 178.02 0 A 13.113 13.113 0 0 1 180.82 0.28 Q 182.604 0.671 183.928 1.604 A 7.355 7.355 0 0 1 185.19 2.73 A 8.863 8.863 0 0 1 187.003 6.022 Q 187.62 7.99 187.62 10.56 L 187.62 12.3 L 181.38 12.3 L 181.38 10.14 Q 181.38 8.093 180.625 7.096 A 2.467 2.467 0 0 0 180.54 6.99 A 2.704 2.704 0 0 0 179.062 6.108 A 4.222 4.222 0 0 0 178.08 6 A 3.829 3.829 0 0 0 176.646 6.248 Q 174.989 6.914 174.803 9.371 A 8.624 8.624 0 0 0 174.78 10.02 Q 174.78 12.3 176.01 14.28 A 12.023 12.023 0 0 0 176.946 15.565 Q 178.227 17.12 180.48 19.08 Q 184.62 22.68 186.18 25.62 Q 187.74 28.56 187.74 32.52 A 16.75 16.75 0 0 1 187.478 35.58 Q 186.923 38.564 185.19 40.44 A 8.196 8.196 0 0 1 181.232 42.777 Q 179.901 43.141 178.308 43.192 A 16.459 16.459 0 0 1 177.78 43.2 Q 172.98 43.2 170.52 40.47 Q 168.06 37.74 168.06 32.64 Z M 24.36 42.6 L 24.36 0.6 L 42.36 0.6 L 42.36 6.6 L 30.96 6.6 L 30.96 17.7 L 40.02 17.7 L 40.02 23.7 L 30.96 23.7 L 30.96 36.6 L 42.36 36.6 L 42.36 42.6 L 24.36 42.6 Z M 152.58 42.6 L 152.58 24.72 L 144.6 0.6 L 151.62 0.6 L 156.12 16.02 L 156.24 16.02 L 160.74 0.6 L 167.16 0.6 L 159.18 24.72 L 159.18 42.6 L 152.58 42.6 Z M 123.48 42.6 L 130.32 0.6 L 139.26 0.6 L 146.1 42.6 L 139.5 42.6 L 138.3 34.26 L 138.3 34.38 L 130.8 34.38 L 129.6 42.6 L 123.48 42.6 Z M 0 42.6 L 0 0.6 L 10.08 0.6 A 14.57 14.57 0 0 1 12.907 0.857 Q 15.766 1.423 17.46 3.24 A 8.42 8.42 0 0 1 19.286 6.435 Q 19.702 7.718 19.845 9.275 A 18.642 18.642 0 0 1 19.92 10.98 L 19.92 32.22 A 16.892 16.892 0 0 1 19.68 35.168 Q 19.151 38.145 17.46 39.96 A 7.758 7.758 0 0 1 14.034 42.058 Q 12.309 42.6 10.08 42.6 L 0 42.6 Z M 104.16 42.6 L 104.16 0.6 L 113.88 0.6 A 14.57 14.57 0 0 1 116.707 0.857 Q 119.566 1.423 121.26 3.24 A 8.42 8.42 0 0 1 123.086 6.435 Q 123.502 7.718 123.645 9.275 A 18.642 18.642 0 0 1 123.72 10.98 L 123.72 15.12 A 16.892 16.892 0 0 1 123.48 18.068 Q 122.951 21.045 121.26 22.86 A 7.758 7.758 0 0 1 117.834 24.958 Q 116.109 25.5 113.88 25.5 L 110.76 25.5 L 110.76 42.6 L 104.16 42.6 Z M 6.6 36.6 L 9.96 36.6 Q 11.427 36.6 12.279 35.814 A 2.743 2.743 0 0 0 12.45 35.64 Q 13.286 34.718 13.319 32.688 A 10.381 10.381 0 0 0 13.32 32.52 L 13.32 10.68 Q 13.32 8.642 12.545 7.672 A 2.365 2.365 0 0 0 12.45 7.56 Q 11.585 6.606 9.977 6.6 A 5.466 5.466 0 0 0 9.96 6.6 L 6.6 6.6 L 6.6 36.6 Z M 131.58 28.68 L 137.52 28.68 L 134.58 7.92 L 134.46 7.92 L 131.58 28.68 Z M 110.76 19.5 L 113.88 19.5 Q 115.5 19.5 116.31 18.6 Q 117.049 17.779 117.114 15.91 A 10.661 10.661 0 0 0 117.12 15.54 L 117.12 10.56 A 9.077 9.077 0 0 0 117.063 9.502 Q 116.905 8.161 116.31 7.5 A 2.561 2.561 0 0 0 115.123 6.767 Q 114.713 6.642 114.219 6.611 A 5.383 5.383 0 0 0 113.88 6.6 L 110.76 6.6 L 110.76 19.5 Z" vector-effect="non-scaling-stroke"/></g></svg>